<?xml version="1.0" standalone="no"?><!DOCTYPE svg PUBLIC "-//W3C//DTD SVG 1.1//EN" "http://www.w3.org/Graphics/SVG/1.1/DTD/svg11.dtd"><svg class="icon" width="16px" height="16.00px" viewBox="0 0 1024 1024" version="1.1" xmlns="http://www.w3.org/2000/svg"><path fill="#060606" d="M875.379101 944.593486 512 581.215408 148.621922 944.593486c-19.113313 19.113313-50.101071 19.113313-69.215408 0-19.113313-19.113313-19.113313-50.101071 0-69.215408l363.379101-363.378078L79.406514 148.621922c-19.113313-19.113313-19.113313-50.101071 0-69.214385 19.114336-19.114336 50.103118-19.114336 69.215408 0l363.378078 363.379101L875.379101 79.407538c19.113313-19.114336 50.101071-19.114336 69.214385 0 19.113313 19.113313 19.113313 50.101071 0 69.214385L581.215408 512l363.378078 363.378078c19.113313 19.114336 19.113313 50.103118 0 69.215408C925.480172 963.705775 894.492414 963.705775 875.379101 944.593486z" /></svg>